<?xml version="1.0" encoding="UTF-8"?>
<svg width="9px" height="13px" viewBox="0 0 9 13" version="1.1" xmlns="http://www.w3.org/2000/svg" xmlns:xlink="http://www.w3.org/1999/xlink">
    <!-- Generator: Sketch 54.1 (76490) - https://sketchapp.com -->
    <title>pin</title>
    <desc>Created with Sketch.</desc>
    <g id="Page-1" stroke="none" stroke-width="1" fill="none" fill-rule="evenodd">
        <g id="pin" fill="#3A30FF" fill-rule="nonzero">
            <path d="M4.49997587,-2.21999983e-07 C6.98132498,-2.21999983e-07 8.99999967,2.15546283 8.99999967,4.80485018 C8.99999967,6.32640731 7.79175468,8.60691385 7.07149962,9.8308258 C6.60130668,10.6298643 6.09528182,11.3938948 5.64659756,11.9822241 C5.16902887,12.6083391 4.7868375,12.9475977 4.50002346,12.9999998 C4.20546883,12.9476316 3.81866167,12.6085593 3.33960196,11.982783 C2.89191699,11.3979596 2.38613006,10.6334719 1.91546127,9.8302161 C1.20010753,8.60930192 -3.33000003e-07,6.33286019 -3.33000003e-07,4.80490099 C-3.33000003e-07,2.15546283 2.01867436,-2.21999983e-07 4.49997587,-2.21999983e-07 Z M4.49999967,1.99999978 C3.12152097,1.99999978 1.99999967,3.12149636 1.99999967,4.49999978 C1.99999967,5.87850319 3.12152097,6.99999978 4.49999967,6.99999978 C5.87847836,6.99999978 6.99999967,5.87850319 6.99999967,4.49999978 C6.99999967,3.12149636 5.87847836,1.99999978 4.49999967,1.99999978 Z" id="Combined-Shape"></path>
        </g>
    </g>
</svg>